<svg width="32" height="32" viewBox="0 0 32 32" fill="none" xmlns="http://www.w3.org/2000/svg">
  <!-- Background circle -->
  <circle cx="16" cy="16" r="15" fill="#2563eb" stroke="#1e40af" stroke-width="2"/>
  
  <!-- Tool icon (hammer and wrench) -->
  <!-- Hammer -->
  <path d="M8 12 L14 12 L14 10 L16 10 L16 14 L14 14 L14 12" fill="white" stroke="white" stroke-width="0.5"/>
  <rect x="6" y="11" width="4" height="2" fill="white"/>
  
  <!-- Wrench -->
  <path d="M18 10 L24 10 Q25 10 25 11 L25 13 Q25 14 24 14 L22 14 L22 16 L20 16 L20 14 L18 14 Q17 14 17 13 L17 11 Q17 10 18 10" fill="white"/>
  <circle cx="21" cy="12" r="1" fill="#2563eb"/>
  
  <!-- Letter T -->
  <text x="16" y="24" font-family="Arial, sans-serif" font-size="8" font-weight="bold" text-anchor="middle" fill="white">T</text>
</svg>
